<?xml version="1.0" encoding="utf-8"?>
<!-- Generator: Adobe Illustrator 25.4.1, SVG Export Plug-In . SVG Version: 6.00 Build 0)  -->
<svg version="1.1" id="Layer_1" xmlns="http://www.w3.org/2000/svg" xmlns:xlink="http://www.w3.org/1999/xlink" x="0px" y="0px"
	 viewBox="0 0 122 32" style="enable-background:new 0 0 122 32;" xml:space="preserve">
<style type="text/css">
	.st0{fill-rule:evenodd;clip-rule:evenodd;fill:#474747;}
	.st1{fill-rule:evenodd;clip-rule:evenodd;fill:#6493FF;}
	.st2{fill-rule:evenodd;clip-rule:evenodd;fill:#3155A7;}
	.st3{fill:#474747;}
	.st4{fill:#FFFFFF;}
</style>
<desc>Created with Sketch.</desc>
<g id="Page-1">
	<g id="majestic">
		<path id="Majestic" class="st0" d="M52.2,109.2v12.9h-1.3v-10.8l-4.4,10.8h-1.2l-4.4-10.8v10.8h-1.3v-12.9h1.5l4.8,11.3l4.8-11.3
			H52.2z M59.2,111.8c1,0,1.9,0.3,2.6,0.8c0.7,0.5,1.2,1.2,1.5,2.1v-2.8h1.3v10.2h-1.3v-2.8c-0.3,0.9-0.8,1.6-1.5,2.1
			c-0.7,0.5-1.6,0.8-2.6,0.8c-0.9,0-1.7-0.2-2.4-0.6c-0.7-0.4-1.3-1-1.7-1.8c-0.4-0.8-0.6-1.7-0.6-2.8c0-1.1,0.2-2,0.6-2.8
			c0.4-0.8,1-1.4,1.7-1.8C57.5,112,58.3,111.8,59.2,111.8z M59.6,112.9c-1.1,0-2,0.4-2.7,1.1c-0.7,0.7-1,1.7-1,3c0,1.3,0.3,2.3,1,3
			c0.7,0.7,1.6,1.1,2.7,1.1c0.7,0,1.4-0.2,1.9-0.5c0.6-0.3,1-0.8,1.3-1.4c0.3-0.6,0.5-1.3,0.5-2.1c0-0.8-0.2-1.5-0.5-2.1
			c-0.3-0.6-0.8-1.1-1.3-1.4C60.9,113.1,60.3,112.9,59.6,112.9z M68.2,109.8c-0.3,0-0.5-0.1-0.7-0.2c-0.2-0.2-0.3-0.4-0.3-0.6
			c0-0.3,0.1-0.5,0.3-0.7c0.2-0.2,0.4-0.2,0.7-0.2c0.3,0,0.5,0.1,0.7,0.2c0.2,0.2,0.3,0.4,0.3,0.7c0,0.3-0.1,0.5-0.3,0.6
			C68.7,109.7,68.5,109.8,68.2,109.8z M65.5,125.8h0.7c0.5,0,0.8-0.1,1-0.3c0.2-0.2,0.3-0.6,0.3-1.1v-12.5h1.3v12.6
			c0,1.7-0.8,2.5-2.5,2.5h-0.8V125.8z M76.1,121.2c0.9,0,1.7-0.2,2.3-0.7c0.6-0.5,1-1.1,1.1-1.9h1.4c-0.2,1.1-0.7,2-1.5,2.6
			c-0.8,0.7-1.9,1-3.2,1c-1,0-1.8-0.2-2.6-0.6c-0.7-0.4-1.3-1-1.7-1.8c-0.4-0.8-0.6-1.7-0.6-2.8c0-1.1,0.2-2,0.6-2.8
			c0.4-0.8,1-1.4,1.7-1.8c0.7-0.4,1.6-0.6,2.6-0.6c1,0,1.8,0.2,2.6,0.6c0.7,0.4,1.3,1,1.6,1.7c0.4,0.7,0.6,1.5,0.6,2.3
			c0,0.3,0,0.7-0.1,1h-8.3c0,0.9,0.2,1.6,0.5,2.2c0.3,0.6,0.8,1,1.3,1.3C74.8,121.1,75.4,121.2,76.1,121.2z M76.1,112.9
			c-0.7,0-1.2,0.1-1.8,0.4c-0.5,0.3-1,0.7-1.3,1.3c-0.3,0.6-0.5,1.3-0.5,2.1h7.1c0-0.8-0.1-1.5-0.4-2.1c-0.3-0.6-0.8-1-1.3-1.3
			C77.3,113,76.7,112.9,76.1,112.9z M86.2,111.8c1.1,0,2,0.3,2.6,0.9c0.7,0.6,1.1,1.4,1.2,2.4h-1.2c-0.1-0.7-0.3-1.2-0.8-1.6
			c-0.5-0.4-1.1-0.6-1.9-0.6c-0.7,0-1.2,0.2-1.6,0.5c-0.4,0.3-0.6,0.8-0.6,1.3c0,0.4,0.1,0.7,0.4,1c0.2,0.2,0.5,0.4,0.9,0.6
			s0.8,0.3,1.4,0.4c0.7,0.2,1.3,0.4,1.8,0.5c0.4,0.2,0.8,0.5,1.2,0.9c0.3,0.4,0.5,0.9,0.5,1.6c0,0.8-0.3,1.5-0.9,2
			c-0.6,0.5-1.4,0.8-2.4,0.8c-1.2,0-2.1-0.3-2.8-0.9c-0.7-0.6-1.2-1.4-1.3-2.4H84c0.1,0.7,0.4,1.2,0.9,1.6c0.5,0.4,1.2,0.6,2,0.6
			c0.6,0,1.1-0.2,1.5-0.5s0.5-0.8,0.5-1.3c0-0.4-0.1-0.8-0.4-1s-0.6-0.5-0.9-0.6c-0.4-0.1-0.9-0.3-1.5-0.4c-0.7-0.2-1.3-0.3-1.7-0.5
			c-0.4-0.2-0.8-0.4-1.1-0.8c-0.3-0.4-0.5-0.9-0.5-1.5c0-0.8,0.3-1.5,0.9-2C84.4,112,85.2,111.8,86.2,111.8z M97.1,121v1.2h-1.2
			c-1,0-1.7-0.2-2.2-0.7c-0.5-0.5-0.7-1.3-0.7-2.4v-6h-1.5v-1.1H93v-2.6h1.3v2.6h2.8v1.1h-2.8v6c0,0.7,0.1,1.2,0.4,1.5
			c0.3,0.3,0.7,0.4,1.4,0.4H97.1z M99,108.9c0-0.3,0.1-0.5,0.3-0.7c0.2-0.2,0.4-0.2,0.7-0.2c0.3,0,0.5,0.1,0.7,0.2
			c0.2,0.2,0.3,0.4,0.3,0.7c0,0.3-0.1,0.5-0.3,0.6c-0.2,0.2-0.4,0.2-0.7,0.2c-0.3,0-0.5-0.1-0.7-0.2C99.1,109.4,99,109.1,99,108.9z
			 M100.6,111.9v10.2h-1.3v-10.2H100.6z M107.8,111.8c1.3,0,2.3,0.3,3.2,1s1.4,1.6,1.5,2.7h-1.3c-0.1-0.8-0.5-1.5-1.1-1.9
			c-0.6-0.5-1.4-0.7-2.3-0.7c-0.7,0-1.3,0.1-1.8,0.4c-0.5,0.3-1,0.8-1.3,1.4c-0.3,0.6-0.5,1.4-0.5,2.3c0,0.9,0.2,1.7,0.5,2.3
			c0.3,0.6,0.8,1.1,1.3,1.4c0.5,0.3,1.1,0.4,1.8,0.4c0.9,0,1.7-0.2,2.3-0.7c0.6-0.5,1-1.1,1.1-1.9h1.3c-0.2,1.1-0.7,2-1.5,2.7
			s-1.9,1-3.2,1c-1,0-1.8-0.2-2.6-0.6c-0.7-0.4-1.3-1-1.7-1.8c-0.4-0.8-0.6-1.7-0.6-2.8c0-1.1,0.2-2,0.6-2.8c0.4-0.8,1-1.4,1.7-1.8
			C106,112,106.9,111.8,107.8,111.8z"/>
		<g id="Group-5">
			<path id="Rectangle" class="st1" d="M-0.7,95.6l2,0.4c1.6,0.3,2.7,1.9,2.3,3.6L-1,121.1c-0.3,1.6-1.9,2.7-3.6,2.3l-2-0.4
				c-1.6-0.3-2.7-1.9-2.3-3.6l4.6-21.5C-3.9,96.3-2.3,95.3-0.7,95.6z"/>
			<path id="Rectangle-Copy" class="st2" d="M10.3,100.4l2,0.1c1.6,0.1,2.8,1,2.5,2.1l-4.5,18.9c-0.3,1.1-2.1,1.9-3.8,1.8l-2-0.1
				c-1.6-0.1-2.8-1-2.5-2.1l4.8-18.9C7.1,101.1,8.6,100.3,10.3,100.4z"/>
			<path id="Rectangle-Copy-2" class="st1" d="M20.2,101.8l1.9,0.4c1.6,0.4,2.6,1.9,2.3,3.4l-3.9,16.4c-0.4,1.5-2,2.5-3.6,2.1
				l-1.9-0.4c-1.6-0.4-2.6-1.9-2.3-3.4l3.9-16.4C16.9,102.4,18.5,101.5,20.2,101.8z"/>
			<path id="Path-2" class="st1" d="M-0.6,95.5l14.2,4.3c1,0.3,1.6,1.4,1.4,2.4l-1.4,5.2L-5,101.8l1.1-4.6c0.3-1.3,1.6-2.1,2.9-1.8
				C-0.9,95.4-0.7,95.4-0.6,95.5z"/>
			<circle id="Oval" class="st1" cx="27.1" cy="119.5" r="3.5"/>
		</g>
	</g>
</g>
<path class="st3" d="M26.8,30.6H5.9c-2.3,0-4.2-1.9-4.2-4.2V5.5c0-2.3,1.9-4.2,4.2-4.2h20.9c2.3,0,4.2,1.9,4.2,4.2v20.9
	C31,28.8,29.1,30.6,26.8,30.6z"/>
<g>
	<path class="st4" d="M5.1,21.1V10.9h2.8l4.1,6.7h-1.5l4-6.7h2.8l0,10.2h-3.1l0-5.5h0.5L12,20.2h-1.5l-2.8-4.6h0.6v5.5H5.1z"/>
	<path class="st4" d="M19,21.1V10.9H24c1,0,1.8,0.2,2.5,0.5c0.7,0.3,1.2,0.8,1.6,1.3c0.4,0.6,0.6,1.3,0.6,2.1c0,0.8-0.2,1.5-0.6,2
		c-0.4,0.6-0.9,1-1.6,1.3c-0.7,0.3-1.5,0.5-2.5,0.5h-3l1.5-1.5v4H19z M22.5,17.5L21,15.9h2.8c0.5,0,0.8-0.1,1.1-0.3s0.3-0.5,0.3-0.9
		c0-0.4-0.1-0.7-0.3-0.9s-0.6-0.3-1.1-0.3H21l1.5-1.6V17.5z"/>
</g>
<g>
	<path class="st3" d="M34.6,22.2V10.9h3.1l4.5,7.4h-1.6l4.4-7.4h3.1l0,11.3h-3.5l0-6.1h0.5l-3,5h-1.7l-3.1-5H38v6.1H34.6z"/>
	<path class="st3" d="M52.8,22.2v-4.9l0.9,2.3l-5.1-8.6h4l3.5,5.9h-2.3l3.5-5.9h3.7l-5.1,8.6l0.8-2.3v4.9H52.8z"/>
	<path class="st3" d="M61.4,22.2V10.9h5.4c1.1,0,2,0.2,2.7,0.5c0.8,0.3,1.4,0.8,1.8,1.5c0.4,0.6,0.6,1.4,0.6,2.3
		c0,0.9-0.2,1.6-0.6,2.3c-0.4,0.6-1,1.1-1.8,1.5c-0.8,0.3-1.7,0.5-2.7,0.5h-3.3l1.7-1.6v4.4H61.4z M65.2,18.2l-1.7-1.7h3.1
		c0.5,0,0.9-0.1,1.2-0.4c0.3-0.2,0.4-0.6,0.4-1c0-0.4-0.1-0.7-0.4-1c-0.3-0.2-0.6-0.4-1.2-0.4h-3.1l1.7-1.7V18.2z"/>
	<path class="st3" d="M79.3,22.4c-0.9,0-1.8-0.1-2.6-0.4c-0.8-0.3-1.5-0.7-2-1.2c-0.6-0.5-1-1.2-1.3-1.9c-0.3-0.7-0.5-1.5-0.5-2.4
		c0-0.9,0.2-1.6,0.5-2.4c0.3-0.7,0.8-1.3,1.3-1.9c0.6-0.5,1.2-0.9,2-1.2c0.8-0.3,1.6-0.4,2.5-0.4c0.9,0,1.8,0.1,2.5,0.4
		c0.8,0.3,1.4,0.7,2,1.2c0.6,0.5,1,1.2,1.3,1.9c0.3,0.7,0.5,1.5,0.5,2.4c0,0.8-0.2,1.6-0.5,2.4c-0.3,0.7-0.8,1.3-1.3,1.9
		c-0.6,0.5-1.2,0.9-2,1.2C81,22.3,80.2,22.4,79.3,22.4z M79.2,19.4c0.4,0,0.7-0.1,1-0.2c0.3-0.1,0.6-0.3,0.8-0.6
		c0.2-0.2,0.4-0.5,0.5-0.9c0.1-0.3,0.2-0.7,0.2-1.2s-0.1-0.8-0.2-1.2c-0.1-0.3-0.3-0.6-0.5-0.9c-0.2-0.2-0.5-0.4-0.8-0.6
		c-0.3-0.1-0.6-0.2-1-0.2c-0.4,0-0.7,0.1-1,0.2c-0.3,0.1-0.6,0.3-0.8,0.6c-0.2,0.2-0.4,0.5-0.5,0.9c-0.1,0.3-0.2,0.7-0.2,1.2
		s0.1,0.8,0.2,1.2c0.1,0.3,0.3,0.6,0.5,0.9c0.2,0.2,0.5,0.4,0.8,0.6C78.6,19.3,78.9,19.4,79.2,19.4z"/>
	<path class="st3" d="M87,22.2V10.9h5.4c1.1,0,2,0.2,2.7,0.5c0.8,0.3,1.4,0.8,1.8,1.5c0.4,0.6,0.6,1.4,0.6,2.3
		c0,0.9-0.2,1.6-0.6,2.2c-0.4,0.6-1,1.1-1.8,1.4c-0.8,0.3-1.7,0.5-2.7,0.5h-3.3l1.7-1.6v4.4H87z M90.8,18.2l-1.7-1.7h3.1
		c0.5,0,0.9-0.1,1.2-0.4c0.3-0.2,0.4-0.6,0.4-1c0-0.4-0.1-0.7-0.4-1c-0.3-0.2-0.6-0.4-1.2-0.4h-3.1l1.7-1.7V18.2z M93.7,22.2
		L91,18.1h4l2.8,4.1H93.7z"/>
	<path class="st3" d="M101.3,22.2v-8.3H98v-2.9h10.4v2.9h-3.3v8.3H101.3z"/>
	<path class="st3" d="M115.1,22.4c-0.9,0-1.8-0.1-2.6-0.4c-0.8-0.3-1.5-0.7-2-1.2c-0.6-0.5-1-1.2-1.3-1.9c-0.3-0.7-0.5-1.5-0.5-2.4
		c0-0.9,0.2-1.6,0.5-2.4c0.3-0.7,0.8-1.3,1.3-1.9c0.6-0.5,1.2-0.9,2-1.2c0.8-0.3,1.6-0.4,2.5-0.4c0.9,0,1.8,0.1,2.5,0.4
		c0.8,0.3,1.4,0.7,2,1.2c0.6,0.5,1,1.2,1.3,1.9c0.3,0.7,0.5,1.5,0.5,2.4c0,0.8-0.2,1.6-0.5,2.4c-0.3,0.7-0.8,1.3-1.3,1.9
		c-0.6,0.5-1.2,0.9-2,1.2C116.9,22.3,116,22.4,115.1,22.4z M115.1,19.4c0.4,0,0.7-0.1,1-0.2c0.3-0.1,0.6-0.3,0.8-0.6
		c0.2-0.2,0.4-0.5,0.5-0.9c0.1-0.3,0.2-0.7,0.2-1.2s-0.1-0.8-0.2-1.2c-0.1-0.3-0.3-0.6-0.5-0.9c-0.2-0.2-0.5-0.4-0.8-0.6
		c-0.3-0.1-0.6-0.2-1-0.2c-0.4,0-0.7,0.1-1,0.2c-0.3,0.1-0.6,0.3-0.8,0.6c-0.2,0.2-0.4,0.5-0.5,0.9c-0.1,0.3-0.2,0.7-0.2,1.2
		s0.1,0.8,0.2,1.2c0.1,0.3,0.3,0.6,0.5,0.9c0.2,0.2,0.5,0.4,0.8,0.6C114.4,19.3,114.7,19.4,115.1,19.4z"/>
</g>
</svg>
