<?xml version="1.0" encoding="utf-8"?>
<!-- Generator: Adobe Illustrator 25.4.1, SVG Export Plug-In . SVG Version: 6.00 Build 0)  -->
<svg version="1.1" id="Layer_1" xmlns="http://www.w3.org/2000/svg" xmlns:xlink="http://www.w3.org/1999/xlink" x="0px" y="0px"
	 viewBox="0 0 40 30" style="enable-background:new 0 0 40 30;" xml:space="preserve">
<style type="text/css">
	.st0{fill-rule:evenodd;clip-rule:evenodd;fill:#6493FF;}
	.st1{fill-rule:evenodd;clip-rule:evenodd;fill:#3155A7;}
	.st2{fill:#FF0077;}
	.st3{fill:#FFFFFF;}
</style>
<desc>Created with Sketch.</desc>
<g id="Page-1">
	<g id="majestic_mini">
		<path id="Rectangle" class="st0" d="M37,50.7l2,0.4c1.6,0.3,2.7,1.9,2.3,3.6l-4.6,21.5c-0.3,1.6-1.9,2.7-3.6,2.3l-2-0.4
			c-1.6-0.3-2.7-1.9-2.3-3.6L33.4,53C33.8,51.4,35.4,50.3,37,50.7z"/>
		<path id="Rectangle-Copy" class="st1" d="M47.9,55.5l2,0.1c1.6,0.1,2.8,1,2.5,2.1l-4.5,18.9c-0.3,1.1-2.1,1.9-3.8,1.8l-2-0.1
			c-1.6-0.1-2.8-1-2.5-2.1l4.8-18.9C44.8,56.2,46.3,55.4,47.9,55.5z"/>
		<path id="Rectangle-Copy-2" class="st0" d="M57.8,56.9l1.9,0.4c1.6,0.4,2.6,1.9,2.3,3.4l-3.9,16.4c-0.4,1.5-2,2.5-3.6,2.1
			l-1.9-0.4c-1.6-0.4-2.6-1.9-2.3-3.4L54.2,59C54.6,57.5,56.2,56.6,57.8,56.9z"/>
		<path id="Path-2" class="st0" d="M37.1,50.5l14.2,4.3c1,0.3,1.6,1.4,1.4,2.4l-1.4,5.2l-18.6-5.6l1.1-4.6c0.3-1.3,1.6-2.1,2.9-1.8
			C36.8,50.4,36.9,50.5,37.1,50.5z"/>
		<circle id="Oval" class="st0" cx="64.7" cy="74.5" r="3.5"/>
	</g>
</g>
<g>
	<path class="st2" d="M30.5,29.6H9.5c-2.3,0-4.2-1.9-4.2-4.2V4.5c0-2.3,1.9-4.2,4.2-4.2h20.9c2.3,0,4.2,1.9,4.2,4.2v20.9
		C34.6,27.8,32.8,29.6,30.5,29.6z"/>
</g>
<g>
	<path class="st3" d="M8.2,20.1V9.9h2.8l4.1,6.7h-1.5l4-6.7h2.8l0,10.2h-3.1l0-5.5h0.5l-2.7,4.6h-1.5l-2.8-4.6h0.6v5.5H8.2z"/>
	<path class="st3" d="M22.2,20.1V9.9h4.9c1,0,1.8,0.2,2.5,0.5c0.7,0.3,1.2,0.8,1.6,1.3c0.4,0.6,0.6,1.3,0.6,2.1c0,0.8-0.2,1.5-0.6,2
		c-0.4,0.6-0.9,1-1.6,1.3s-1.5,0.5-2.5,0.5h-3l1.5-1.5v4H22.2z M25.6,16.5l-1.5-1.6h2.8c0.5,0,0.8-0.1,1.1-0.3s0.3-0.5,0.3-0.9
		c0-0.4-0.1-0.7-0.3-0.9s-0.6-0.3-1.1-0.3h-2.8l1.5-1.6V16.5z"/>
</g>
</svg>
